<mxfile host="app.diagrams.net" modified="2022-04-15T03:04:10.130Z" agent="5.0 (Windows NT 10.0; Win64; x64) AppleWebKit/537.36 (KHTML, like Gecko) Chrome/100.0.4896.75 Safari/537.36" etag="S7RAQ91WT5zy5Z-K55M8" version="17.4.4" type="github">
  <diagram id="PW25xMCEWlc-aoezkBr4" name="Page-1">
    <mxGraphModel dx="835" dy="506" grid="1" gridSize="10" guides="1" tooltips="1" connect="1" arrows="1" fold="1" page="1" pageScale="1" pageWidth="827" pageHeight="1169" math="0" shadow="0">
      <root>
        <mxCell id="0" />
        <mxCell id="1" parent="0" />
        <mxCell id="VFLTr_RveI08RQdQY755-1" value="student" style="rounded=1;whiteSpace=wrap;html=1;strokeColor=#000000;" vertex="1" parent="1">
          <mxGeometry x="230" y="260" width="120" height="60" as="geometry" />
        </mxCell>
        <mxCell id="VFLTr_RveI08RQdQY755-2" value="Name" style="ellipse;whiteSpace=wrap;html=1;strokeColor=#000000;" vertex="1" parent="1">
          <mxGeometry x="150" y="140" width="100" height="60" as="geometry" />
        </mxCell>
        <mxCell id="VFLTr_RveI08RQdQY755-3" value="" style="endArrow=none;html=1;rounded=0;entryX=0.5;entryY=1;entryDx=0;entryDy=0;exitX=0;exitY=0.5;exitDx=0;exitDy=0;" edge="1" parent="1" source="VFLTr_RveI08RQdQY755-1" target="VFLTr_RveI08RQdQY755-2">
          <mxGeometry width="50" height="50" relative="1" as="geometry">
            <mxPoint x="200" y="260" as="sourcePoint" />
            <mxPoint x="250" y="210" as="targetPoint" />
          </mxGeometry>
        </mxCell>
        <mxCell id="VFLTr_RveI08RQdQY755-4" value="ID" style="ellipse;whiteSpace=wrap;html=1;strokeColor=#000000;" vertex="1" parent="1">
          <mxGeometry x="320" y="140" width="100" height="60" as="geometry" />
        </mxCell>
        <mxCell id="VFLTr_RveI08RQdQY755-5" value="" style="endArrow=none;html=1;rounded=0;entryX=0.5;entryY=1;entryDx=0;entryDy=0;exitX=0.5;exitY=0;exitDx=0;exitDy=0;" edge="1" parent="1" target="VFLTr_RveI08RQdQY755-4" source="VFLTr_RveI08RQdQY755-1">
          <mxGeometry width="50" height="50" relative="1" as="geometry">
            <mxPoint x="460" y="260" as="sourcePoint" />
            <mxPoint x="420" y="210" as="targetPoint" />
          </mxGeometry>
        </mxCell>
        <mxCell id="VFLTr_RveI08RQdQY755-7" value="Degree" style="ellipse;whiteSpace=wrap;html=1;strokeColor=#000000;" vertex="1" parent="1">
          <mxGeometry x="40" y="350" width="100" height="60" as="geometry" />
        </mxCell>
        <mxCell id="VFLTr_RveI08RQdQY755-9" value="" style="endArrow=none;html=1;rounded=0;exitX=1;exitY=0.5;exitDx=0;exitDy=0;entryX=0.5;entryY=1;entryDx=0;entryDy=0;" edge="1" parent="1" source="VFLTr_RveI08RQdQY755-7" target="VFLTr_RveI08RQdQY755-1">
          <mxGeometry width="50" height="50" relative="1" as="geometry">
            <mxPoint x="390" y="330" as="sourcePoint" />
            <mxPoint x="440" y="280" as="targetPoint" />
          </mxGeometry>
        </mxCell>
        <mxCell id="VFLTr_RveI08RQdQY755-46" value="" style="edgeStyle=orthogonalEdgeStyle;rounded=0;orthogonalLoop=1;jettySize=auto;html=1;" edge="1" parent="1" source="VFLTr_RveI08RQdQY755-10" target="VFLTr_RveI08RQdQY755-14">
          <mxGeometry relative="1" as="geometry" />
        </mxCell>
        <mxCell id="VFLTr_RveI08RQdQY755-10" value="Conduct&lt;br&gt;" style="rhombus;whiteSpace=wrap;html=1;strokeColor=#000000;" vertex="1" parent="1">
          <mxGeometry x="414" y="265" width="126" height="50" as="geometry" />
        </mxCell>
        <mxCell id="VFLTr_RveI08RQdQY755-12" value="" style="endArrow=none;html=1;rounded=0;" edge="1" parent="1" target="VFLTr_RveI08RQdQY755-10">
          <mxGeometry width="50" height="50" relative="1" as="geometry">
            <mxPoint x="350" y="290" as="sourcePoint" />
            <mxPoint x="400" y="240" as="targetPoint" />
          </mxGeometry>
        </mxCell>
        <mxCell id="VFLTr_RveI08RQdQY755-14" value="student" style="rounded=1;whiteSpace=wrap;html=1;strokeColor=#000000;" vertex="1" parent="1">
          <mxGeometry x="620" y="260" width="120" height="60" as="geometry" />
        </mxCell>
        <mxCell id="VFLTr_RveI08RQdQY755-15" value="Name" style="ellipse;whiteSpace=wrap;html=1;strokeColor=#000000;" vertex="1" parent="1">
          <mxGeometry x="540" y="140" width="100" height="60" as="geometry" />
        </mxCell>
        <mxCell id="VFLTr_RveI08RQdQY755-16" value="" style="endArrow=none;html=1;rounded=0;entryX=0.5;entryY=1;entryDx=0;entryDy=0;exitX=0;exitY=0;exitDx=0;exitDy=0;" edge="1" parent="1" source="VFLTr_RveI08RQdQY755-14" target="VFLTr_RveI08RQdQY755-15">
          <mxGeometry width="50" height="50" relative="1" as="geometry">
            <mxPoint x="590" y="260" as="sourcePoint" />
            <mxPoint x="640" y="210" as="targetPoint" />
          </mxGeometry>
        </mxCell>
        <mxCell id="VFLTr_RveI08RQdQY755-17" value="ID" style="ellipse;whiteSpace=wrap;html=1;strokeColor=#000000;" vertex="1" parent="1">
          <mxGeometry x="710" y="140" width="100" height="60" as="geometry" />
        </mxCell>
        <mxCell id="VFLTr_RveI08RQdQY755-18" value="" style="endArrow=none;html=1;rounded=0;entryX=0.5;entryY=1;entryDx=0;entryDy=0;exitX=0.5;exitY=0;exitDx=0;exitDy=0;" edge="1" parent="1" source="VFLTr_RveI08RQdQY755-14" target="VFLTr_RveI08RQdQY755-17">
          <mxGeometry width="50" height="50" relative="1" as="geometry">
            <mxPoint x="850" y="260" as="sourcePoint" />
            <mxPoint x="810" y="210" as="targetPoint" />
          </mxGeometry>
        </mxCell>
        <mxCell id="VFLTr_RveI08RQdQY755-19" value="Degree" style="ellipse;whiteSpace=wrap;html=1;strokeColor=#000000;" vertex="1" parent="1">
          <mxGeometry x="430" y="350" width="100" height="60" as="geometry" />
        </mxCell>
        <mxCell id="VFLTr_RveI08RQdQY755-20" value="" style="endArrow=none;html=1;rounded=0;exitX=1;exitY=0.5;exitDx=0;exitDy=0;entryX=0.5;entryY=1;entryDx=0;entryDy=0;" edge="1" parent="1" source="VFLTr_RveI08RQdQY755-19" target="VFLTr_RveI08RQdQY755-14">
          <mxGeometry width="50" height="50" relative="1" as="geometry">
            <mxPoint x="780" y="330" as="sourcePoint" />
            <mxPoint x="830" y="280" as="targetPoint" />
          </mxGeometry>
        </mxCell>
        <mxCell id="VFLTr_RveI08RQdQY755-21" value="" style="endArrow=none;html=1;rounded=0;" edge="1" parent="1">
          <mxGeometry width="50" height="50" relative="1" as="geometry">
            <mxPoint x="740" y="290" as="sourcePoint" />
            <mxPoint x="804" y="290" as="targetPoint" />
          </mxGeometry>
        </mxCell>
        <mxCell id="VFLTr_RveI08RQdQY755-22" value="student" style="rounded=1;whiteSpace=wrap;html=1;strokeColor=#000000;" vertex="1" parent="1">
          <mxGeometry x="950" y="260" width="120" height="60" as="geometry" />
        </mxCell>
        <mxCell id="VFLTr_RveI08RQdQY755-23" value="Name" style="ellipse;whiteSpace=wrap;html=1;strokeColor=#000000;" vertex="1" parent="1">
          <mxGeometry x="870" y="140" width="100" height="60" as="geometry" />
        </mxCell>
        <mxCell id="VFLTr_RveI08RQdQY755-24" value="" style="endArrow=none;html=1;rounded=0;entryX=0.5;entryY=1;entryDx=0;entryDy=0;exitX=0;exitY=0.5;exitDx=0;exitDy=0;" edge="1" parent="1" source="VFLTr_RveI08RQdQY755-22" target="VFLTr_RveI08RQdQY755-23">
          <mxGeometry width="50" height="50" relative="1" as="geometry">
            <mxPoint x="920" y="260" as="sourcePoint" />
            <mxPoint x="970" y="210" as="targetPoint" />
          </mxGeometry>
        </mxCell>
        <mxCell id="VFLTr_RveI08RQdQY755-25" value="ID" style="ellipse;whiteSpace=wrap;html=1;strokeColor=#000000;" vertex="1" parent="1">
          <mxGeometry x="1040" y="140" width="100" height="60" as="geometry" />
        </mxCell>
        <mxCell id="VFLTr_RveI08RQdQY755-26" value="" style="endArrow=none;html=1;rounded=0;entryX=0.5;entryY=1;entryDx=0;entryDy=0;exitX=0.5;exitY=0;exitDx=0;exitDy=0;" edge="1" parent="1" source="VFLTr_RveI08RQdQY755-22" target="VFLTr_RveI08RQdQY755-25">
          <mxGeometry width="50" height="50" relative="1" as="geometry">
            <mxPoint x="1180" y="260" as="sourcePoint" />
            <mxPoint x="1140" y="210" as="targetPoint" />
          </mxGeometry>
        </mxCell>
        <mxCell id="VFLTr_RveI08RQdQY755-27" value="Degree" style="ellipse;whiteSpace=wrap;html=1;strokeColor=#000000;" vertex="1" parent="1">
          <mxGeometry x="760" y="350" width="100" height="60" as="geometry" />
        </mxCell>
        <mxCell id="VFLTr_RveI08RQdQY755-28" value="" style="endArrow=none;html=1;rounded=0;exitX=1;exitY=0.5;exitDx=0;exitDy=0;entryX=0.5;entryY=1;entryDx=0;entryDy=0;" edge="1" parent="1" source="VFLTr_RveI08RQdQY755-27" target="VFLTr_RveI08RQdQY755-22">
          <mxGeometry width="50" height="50" relative="1" as="geometry">
            <mxPoint x="1110" y="330" as="sourcePoint" />
            <mxPoint x="1160" y="280" as="targetPoint" />
          </mxGeometry>
        </mxCell>
        <mxCell id="VFLTr_RveI08RQdQY755-29" value="" style="endArrow=none;html=1;rounded=0;" edge="1" parent="1">
          <mxGeometry width="50" height="50" relative="1" as="geometry">
            <mxPoint x="1070" y="290" as="sourcePoint" />
            <mxPoint x="1134" y="290" as="targetPoint" />
          </mxGeometry>
        </mxCell>
        <mxCell id="VFLTr_RveI08RQdQY755-30" value="student" style="rounded=1;whiteSpace=wrap;html=1;strokeColor=#000000;" vertex="1" parent="1">
          <mxGeometry x="620" y="510" width="120" height="60" as="geometry" />
        </mxCell>
        <mxCell id="VFLTr_RveI08RQdQY755-31" value="Name" style="ellipse;whiteSpace=wrap;html=1;strokeColor=#000000;" vertex="1" parent="1">
          <mxGeometry x="540" y="390" width="100" height="60" as="geometry" />
        </mxCell>
        <mxCell id="VFLTr_RveI08RQdQY755-32" value="" style="endArrow=none;html=1;rounded=0;entryX=0.5;entryY=1;entryDx=0;entryDy=0;exitX=0;exitY=0.5;exitDx=0;exitDy=0;" edge="1" parent="1" source="VFLTr_RveI08RQdQY755-30" target="VFLTr_RveI08RQdQY755-31">
          <mxGeometry width="50" height="50" relative="1" as="geometry">
            <mxPoint x="590" y="510" as="sourcePoint" />
            <mxPoint x="640" y="460" as="targetPoint" />
          </mxGeometry>
        </mxCell>
        <mxCell id="VFLTr_RveI08RQdQY755-33" value="ID" style="ellipse;whiteSpace=wrap;html=1;strokeColor=#000000;" vertex="1" parent="1">
          <mxGeometry x="710" y="390" width="100" height="60" as="geometry" />
        </mxCell>
        <mxCell id="VFLTr_RveI08RQdQY755-34" value="" style="endArrow=none;html=1;rounded=0;entryX=0.5;entryY=1;entryDx=0;entryDy=0;exitX=0.5;exitY=0;exitDx=0;exitDy=0;" edge="1" parent="1" source="VFLTr_RveI08RQdQY755-30" target="VFLTr_RveI08RQdQY755-33">
          <mxGeometry width="50" height="50" relative="1" as="geometry">
            <mxPoint x="850" y="510" as="sourcePoint" />
            <mxPoint x="810" y="460" as="targetPoint" />
          </mxGeometry>
        </mxCell>
        <mxCell id="VFLTr_RveI08RQdQY755-35" value="Degree" style="ellipse;whiteSpace=wrap;html=1;strokeColor=#000000;" vertex="1" parent="1">
          <mxGeometry x="430" y="600" width="100" height="60" as="geometry" />
        </mxCell>
        <mxCell id="VFLTr_RveI08RQdQY755-36" value="" style="endArrow=none;html=1;rounded=0;exitX=1;exitY=0.5;exitDx=0;exitDy=0;entryX=0.5;entryY=1;entryDx=0;entryDy=0;" edge="1" parent="1" source="VFLTr_RveI08RQdQY755-35" target="VFLTr_RveI08RQdQY755-30">
          <mxGeometry width="50" height="50" relative="1" as="geometry">
            <mxPoint x="780" y="580" as="sourcePoint" />
            <mxPoint x="830" y="530" as="targetPoint" />
          </mxGeometry>
        </mxCell>
        <mxCell id="VFLTr_RveI08RQdQY755-37" value="" style="endArrow=none;html=1;rounded=0;" edge="1" parent="1">
          <mxGeometry width="50" height="50" relative="1" as="geometry">
            <mxPoint x="740" y="540" as="sourcePoint" />
            <mxPoint x="804" y="540" as="targetPoint" />
          </mxGeometry>
        </mxCell>
        <mxCell id="VFLTr_RveI08RQdQY755-38" value="student" style="rounded=1;whiteSpace=wrap;html=1;strokeColor=#000000;" vertex="1" parent="1">
          <mxGeometry x="950" y="510" width="120" height="60" as="geometry" />
        </mxCell>
        <mxCell id="VFLTr_RveI08RQdQY755-39" value="Name" style="ellipse;whiteSpace=wrap;html=1;strokeColor=#000000;" vertex="1" parent="1">
          <mxGeometry x="870" y="390" width="100" height="60" as="geometry" />
        </mxCell>
        <mxCell id="VFLTr_RveI08RQdQY755-40" value="" style="endArrow=none;html=1;rounded=0;entryX=0.5;entryY=1;entryDx=0;entryDy=0;exitX=0;exitY=0.5;exitDx=0;exitDy=0;" edge="1" parent="1" source="VFLTr_RveI08RQdQY755-38" target="VFLTr_RveI08RQdQY755-39">
          <mxGeometry width="50" height="50" relative="1" as="geometry">
            <mxPoint x="920" y="510" as="sourcePoint" />
            <mxPoint x="970" y="460" as="targetPoint" />
          </mxGeometry>
        </mxCell>
        <mxCell id="VFLTr_RveI08RQdQY755-41" value="ID" style="ellipse;whiteSpace=wrap;html=1;strokeColor=#000000;" vertex="1" parent="1">
          <mxGeometry x="1040" y="390" width="100" height="60" as="geometry" />
        </mxCell>
        <mxCell id="VFLTr_RveI08RQdQY755-42" value="" style="endArrow=none;html=1;rounded=0;entryX=0.5;entryY=1;entryDx=0;entryDy=0;exitX=0.5;exitY=0;exitDx=0;exitDy=0;" edge="1" parent="1" source="VFLTr_RveI08RQdQY755-38" target="VFLTr_RveI08RQdQY755-41">
          <mxGeometry width="50" height="50" relative="1" as="geometry">
            <mxPoint x="1180" y="510" as="sourcePoint" />
            <mxPoint x="1140" y="460" as="targetPoint" />
          </mxGeometry>
        </mxCell>
        <mxCell id="VFLTr_RveI08RQdQY755-43" value="Degree" style="ellipse;whiteSpace=wrap;html=1;strokeColor=#000000;" vertex="1" parent="1">
          <mxGeometry x="760" y="600" width="100" height="60" as="geometry" />
        </mxCell>
        <mxCell id="VFLTr_RveI08RQdQY755-44" value="" style="endArrow=none;html=1;rounded=0;exitX=1;exitY=0.5;exitDx=0;exitDy=0;entryX=0.5;entryY=1;entryDx=0;entryDy=0;" edge="1" parent="1" source="VFLTr_RveI08RQdQY755-43" target="VFLTr_RveI08RQdQY755-38">
          <mxGeometry width="50" height="50" relative="1" as="geometry">
            <mxPoint x="1110" y="580" as="sourcePoint" />
            <mxPoint x="1160" y="530" as="targetPoint" />
          </mxGeometry>
        </mxCell>
        <mxCell id="VFLTr_RveI08RQdQY755-45" value="" style="endArrow=none;html=1;rounded=0;" edge="1" parent="1">
          <mxGeometry width="50" height="50" relative="1" as="geometry">
            <mxPoint x="1070" y="540" as="sourcePoint" />
            <mxPoint x="1134" y="540" as="targetPoint" />
          </mxGeometry>
        </mxCell>
        <mxCell id="VFLTr_RveI08RQdQY755-47" value="Case ID" style="ellipse;whiteSpace=wrap;html=1;strokeColor=#000000;" vertex="1" parent="1">
          <mxGeometry x="560" y="60" width="100" height="60" as="geometry" />
        </mxCell>
        <mxCell id="VFLTr_RveI08RQdQY755-48" value="Case ID" style="ellipse;whiteSpace=wrap;html=1;strokeColor=#000000;" vertex="1" parent="1">
          <mxGeometry x="690" y="60" width="100" height="60" as="geometry" />
        </mxCell>
      </root>
    </mxGraphModel>
  </diagram>
</mxfile>
